# xmcd
#
# Track frame offsets: 
#        150
#        34564
#        53290
#        99143
#        131142
#        151944
#        185706
#        216865
#
# Disc length: 3151 seconds
#
# Revision: 1
# Processed by: cddbd v1.5.2PL0 Copyright (c) Steve Scherf et al.
# Submitted via: ExactAudioCopy v0.99pb5
#
DISCID=5f0c4d08
DTITLE=Chet Baker - Peace
DYEAR=1982
DGENRE=Jazz
TTITLE0=3+1=5
TTITLE1=Peace
TTITLE2=Lament for Thelonious
TTITLE3=The song is you
TTITLE4=Shadows
TTITLE5=For now
TTITLE6=3+1=5 (alt. Track)
TTITLE7=Peace (alt. Track)
EXTD=YEAR: 1982
EXTT0=
EXTT1=
EXTT2=
EXTT3=
EXTT4=
EXTT5=
EXTT6=
EXTT7=
PLAYORDER=
